<svg width="47" height="48" viewBox="0 0 47 48" fill="none" xmlns="http://www.w3.org/2000/svg">
<path d="M45.958 19.5388C46.2501 21.1314 46.4093 22.7965 46.4093 24.5341C46.4093 38.1254 37.4698 47.7897 23.9679 47.7897C20.8974 47.7906 17.8568 47.1759 15.0198 45.9807C12.1829 44.7855 9.60516 43.0332 7.43399 40.8239C5.26282 38.6147 3.54073 35.9918 2.36613 33.105C1.19153 30.2183 0.587444 27.1244 0.58838 24C0.587444 20.8756 1.19153 17.7817 2.36613 14.895C3.54073 12.0082 5.26282 9.3853 7.43399 7.17604C9.60516 4.96677 12.1829 3.21447 15.0198 2.01927C17.8568 0.824063 20.8974 0.209376 23.9679 0.210328C30.2806 0.210328 35.5555 2.57383 39.6025 6.4115L33.0119 13.1177V13.1008C30.5585 10.7228 27.4449 9.50241 23.9679 9.50241C16.2539 9.50241 9.98388 16.1337 9.98388 23.9855C9.98388 31.8348 16.2539 38.4807 23.9679 38.4807C30.967 38.4807 35.7313 34.4086 36.7098 28.8164H23.9679V19.5388H45.9604H45.958Z" fill="black"/>
</svg>
