<svg width="63" height="39" viewBox="0 0 63 39" fill="none" xmlns="http://www.w3.org/2000/svg">
<path d="M29.3165 35.1906C29.4645 35.3187 29.6248 35.4469 29.7821 35.5719C26.6568 37.6745 22.9883 38.7943 19.2371 38.7906C16.7367 38.7927 14.2605 38.2952 11.95 37.3265C9.63949 36.3579 7.54005 34.9371 5.77174 33.1455C4.00343 31.3539 2.60093 29.2265 1.64446 26.8851C0.687984 24.5437 0.196295 22.0341 0.197512 19.5C0.197187 16.0097 1.13086 12.5848 2.89911 9.58976C4.66736 6.59476 7.20397 4.14189 10.2388 2.49237C13.2737 0.84285 16.6931 0.0584401 20.133 0.222673C23.5729 0.386906 26.9044 1.49363 29.7728 3.425C29.6187 3.55937 29.4645 3.68124 29.3473 3.81874C27.1248 5.76379 25.3416 8.1711 24.1189 10.877C22.8963 13.5829 22.2629 16.5239 22.2618 19.5C22.2618 25.5156 24.8303 31.2344 29.3165 35.1906ZM42.7629 0.206246C39.0151 0.198859 35.3494 1.31908 32.2303 3.425C32.3813 3.55937 32.5355 3.68124 32.6527 3.81874C37.1605 7.76562 39.7413 13.4875 39.7413 19.5C39.7413 25.5125 37.1667 31.2281 32.6866 35.1906C32.5355 35.3187 32.3752 35.4469 32.221 35.5719C35.3436 37.6752 39.0105 38.7951 42.7598 38.7906C45.2799 38.8233 47.7813 38.3485 50.119 37.3938C52.4566 36.4391 54.5839 35.0234 56.3775 33.2288C58.171 31.4343 59.5952 29.2967 60.5672 26.94C61.5393 24.5833 62.0399 22.0544 62.0402 19.5C62.0404 16.9457 61.5401 14.4167 60.5684 12.0598C59.5967 9.70295 58.1729 7.56509 56.3797 5.77027C54.5864 3.97546 52.4593 2.55941 50.1218 1.60428C47.7844 0.649145 45.283 0.173945 42.7629 0.206246ZM31 4.34375C28.7332 6.14519 26.9009 8.44623 25.6422 11.0723C24.3836 13.6984 23.7316 16.5805 23.7357 19.5C23.7297 22.4212 24.3808 25.3053 25.6396 27.9332C26.8983 30.561 28.7316 32.8635 31 34.6656C33.2678 32.8627 35.1008 30.5602 36.3599 27.9325C37.6191 25.3049 38.2714 22.4212 38.2674 19.5C38.2716 16.5801 37.6193 13.6977 36.3601 11.0715C35.1009 8.44539 33.2678 6.14456 31 4.34375Z" fill="black"/>
</svg>
