<svg width="82" height="27" viewBox="0 0 82 27" fill="none" xmlns="http://www.w3.org/2000/svg">
<path d="M59.5343 1.89222C57.6361 1.19349 55.6296 0.84286 53.6093 0.856848C47.076 0.856848 42.4618 4.1816 42.4292 8.95422C42.3883 12.4605 45.7081 14.4363 48.2193 15.6078C50.7959 16.8123 51.6575 17.5713 51.6493 18.648C51.633 20.2856 49.5913 21.0281 47.6926 21.0281C45.0833 21.0281 43.6583 20.661 41.4655 19.7411L40.6529 19.3575L39.726 24.852C41.3144 25.5202 44.1768 26.0936 47.1332 26.1431C54.0789 26.1431 58.6196 22.839 58.6727 17.7611C58.7298 14.9602 56.9332 12.8441 53.152 11.0951C50.8531 9.96072 49.428 9.20172 49.428 8.05085C49.428 7.03197 50.6489 5.94297 53.201 5.94297C54.8995 5.90146 56.5875 6.22338 58.1541 6.8876L58.7666 7.16397L59.6935 1.8551L59.5343 1.89222ZM76.4883 1.30235H71.3841C69.7957 1.30235 68.5993 1.74372 67.9051 3.33597L58.0888 25.8007H65.0345L66.4228 22.1171L74.8998 22.1253C75.0999 22.9875 75.7124 25.8007 75.7124 25.8007H81.8374L76.4883 1.30235ZM33.0334 1.0961H39.6525L35.512 25.6068H28.9011L33.0334 1.08785V1.0961ZM16.2305 14.6055L16.9165 18.0086L23.3845 1.30235H30.3956L19.979 25.7677H12.9843L7.26759 5.05197C7.175 4.71039 6.95756 4.41702 6.65917 4.2311C4.59873 3.15586 2.41555 2.3399 0.158508 1.80147L0.248341 1.28584H10.9018C12.3473 1.34359 13.511 1.80147 13.8989 3.36072L16.2264 14.6178V14.6055H16.2305ZM68.3216 17.1052L70.9594 10.2495C70.9268 10.3237 71.5025 8.8346 71.8373 7.91472L72.2906 10.0308L73.8218 17.1011H68.3175V17.1052H68.3216Z" fill="black"/>
</svg>
