<svg width="106" height="41" viewBox="0 0 106 41" fill="none" xmlns="http://www.w3.org/2000/svg">
<path d="M8.4005 39.8837V27.1875L0 4.43999H4.22675L10.4012 21.998L17.5297 0.768555H21.412L12.2662 27.328V39.8871L8.4005 39.8837ZM33.2972 39.8837H30.0543C29.8919 39.2305 29.7811 38.5652 29.7231 37.8942H29.4846C28.3981 39.2886 26.9969 40.2315 24.8239 40.2315C21.3027 40.2315 18.8879 37.5465 18.8879 32.6378C18.8879 27.2878 21.6008 23.914 28.5339 23.914H29.0672V22.4327C29.0672 19.1558 27.9807 17.7648 25.8242 17.7648C23.8533 17.7648 22.1805 18.8081 20.9052 19.9416L20.1632 16.5276C21.3027 15.5881 23.5651 14.5448 26.0627 14.5448C30.4485 14.5448 32.8468 16.4273 32.8468 22.4862V34.2261C32.8468 36.6102 33.0853 38.7034 33.2741 39.8871L33.2972 39.8837ZM29.0871 26.8565H28.6366C23.8566 26.8565 22.843 28.9798 22.843 32.2031C22.843 35.0788 23.7738 36.9546 25.7216 36.9546C27.0499 36.9546 28.3815 36.0685 29.0705 34.9718L29.0871 26.8565ZM41.4592 39.8837H37.63V14.8223H41.4592V17.0158H41.6978C42.3901 16.0762 44.255 14.5415 46.5638 14.5415C49.8068 14.5415 51.516 16.3705 51.516 20.1857V39.8837H47.6338V20.5335C47.6338 18.6509 46.8089 17.9922 45.3249 17.9922C43.7184 17.9922 42.3569 19.2461 41.4592 20.48V39.8837ZM55.3088 28.3378C55.3088 19.0555 58.7439 14.5448 63.6961 14.5448C64.8853 14.5448 66.1109 14.9461 66.8529 15.4844V4.43999H70.6821V39.8837H67.8334L67.5253 37.8942H67.2835C66.2136 39.2886 64.8356 40.2315 62.8183 40.2315C57.9522 40.2315 55.3088 36.0685 55.3088 28.3378ZM66.8562 18.8984C66.0778 18.1126 65.2364 17.7113 63.9544 17.7113C60.8672 17.7113 59.3832 22.4327 59.3832 27.5319C59.3832 33.3868 60.4697 36.9513 63.282 36.9513C65.1999 36.9513 66.2136 36.0117 66.8562 35.0219V18.8984ZM82.7761 40.2315C77.6715 40.2315 74.5114 36.122 74.5114 28.4381C74.5114 20.3964 76.7208 14.5415 81.9811 14.5415C86.1051 14.5415 88.7949 17.6578 88.7949 26.161V28.2843H78.4963C78.4963 33.9452 80.0697 36.9078 83.1206 36.9078C85.2803 36.9078 86.867 35.9314 87.8343 35.2359L88.7319 38.1951C87.0382 39.5437 84.9363 40.2627 82.7794 40.2315H82.7761ZM78.5493 25.0977H84.8828C84.8828 20.8311 84.1905 17.7147 81.9811 17.7147C79.6358 17.7147 78.811 20.6405 78.5328 25.0977H78.5493ZM105.467 14.8926L100.859 26.5957L106 39.8871H102.035L98.1825 29.575L94.4593 39.8871H90.6797L95.8372 26.9434L91.1633 14.8926H95.1483L98.3581 23.9641L101.737 14.8926H105.467Z" fill="black"/>
</svg>
