<svg width="29" height="29" viewBox="0 0 29 29" fill="none" xmlns="http://www.w3.org/2000/svg">
<path fill-rule="evenodd" clip-rule="evenodd" d="M11.9352 2.49756C8.37117 2.49756 5.50927 5.25113 5.50927 8.68119C5.50927 12.1105 8.37155 14.8648 11.9352 14.8648C15.4996 14.8648 18.3611 12.1108 18.3611 8.68119C18.3611 5.25076 15.5 2.49756 11.9352 2.49756ZM11.9352 4.24172C14.499 4.24172 16.5486 6.21403 16.5486 8.68119C16.5486 11.1476 14.4986 13.1207 11.9352 13.1207C9.37257 13.1207 7.32177 11.1472 7.32177 8.68119C7.32177 6.21447 9.37212 4.24172 11.9352 4.24172ZM11.9352 16.9814C5.85726 16.9814 2.41714 18.0913 2.41714 21.236C2.41714 24.3843 5.87252 25.515 11.9352 25.515L12.7127 25.5086C18.3043 25.4146 21.4532 24.2677 21.4532 21.2604C21.4532 18.1806 18.1465 17.0315 12.3269 16.983L11.9352 16.9814ZM11.9352 18.7256C17.012 18.7256 19.6407 19.5858 19.6407 21.2604C19.6407 22.9246 17.0184 23.7709 11.9352 23.7709C6.85841 23.7709 4.22964 22.9106 4.22964 21.236C4.22964 19.6161 6.71079 18.7719 11.5283 18.7274L11.9352 18.7256ZM23.2049 9.38025C23.6637 9.38025 24.0429 9.70833 24.1029 10.134L24.1112 10.2523V11.7115H25.6771C26.1776 11.7115 26.5833 12.1019 26.5833 12.5836C26.5833 13.0251 26.2424 13.39 25.8001 13.4477L25.6771 13.4557H24.1112V14.9151C24.1112 15.3967 23.7055 15.7871 23.2049 15.7871C22.7461 15.7871 22.367 15.4591 22.307 15.0334L22.2987 14.9151V13.4557H20.735C20.2345 13.4557 19.8287 13.0652 19.8287 12.5836C19.8287 12.1421 20.1697 11.7772 20.612 11.7195L20.735 11.7115H22.2987V10.2523C22.2987 9.7707 22.7044 9.38025 23.2049 9.38025Z" fill="white"/>
</svg>
