<svg width="20" height="24" viewBox="0 0 20 24" fill="none" xmlns="http://www.w3.org/2000/svg">
<path fill-rule="evenodd" clip-rule="evenodd" d="M9.93503 0.497559C6.37101 0.497559 3.50912 3.25113 3.50912 6.68119C3.50912 10.1105 6.3714 12.8648 9.93503 12.8648C13.4995 12.8648 16.361 10.1108 16.361 6.68119C16.361 3.25076 13.4999 0.497559 9.93503 0.497559ZM9.93503 2.24172C12.4989 2.24172 14.5485 4.21403 14.5485 6.68119C14.5485 9.14762 12.4984 11.1207 9.93503 11.1207C7.37242 11.1207 5.32162 9.14719 5.32162 6.68119C5.32162 4.21447 7.37197 2.24172 9.93503 2.24172ZM9.93503 14.9814C3.85711 14.9814 0.416992 16.0913 0.416992 19.236C0.416992 22.3843 3.87237 23.515 9.93503 23.515L10.7126 23.5086C16.3042 23.4146 19.4531 22.2677 19.4531 19.2604C19.4531 16.1806 16.1463 15.0315 10.3267 14.983L9.93503 14.9814ZM9.93503 16.7256C15.0118 16.7256 17.6406 17.5858 17.6406 19.2604C17.6406 20.9246 15.0182 21.7709 9.93503 21.7709C4.85826 21.7709 2.22949 20.9106 2.22949 19.236C2.22949 17.6161 4.71064 16.7719 9.52817 16.7274L9.93503 16.7256Z" fill="white"/>
</svg>
