<svg width="31" height="38" viewBox="0 0 31 38" fill="none" xmlns="http://www.w3.org/2000/svg">
<path fill-rule="evenodd" clip-rule="evenodd" d="M28.3719 5.60746C29.1912 5.89434 29.7387 6.66684 29.7387 7.53496V20.2343C29.7387 23.7837 28.4487 27.1718 26.1706 29.7968C25.025 31.1187 23.5756 32.1481 22.0362 32.9806L15.365 36.5843L8.6825 32.9787C7.14125 32.1462 5.69 31.1187 4.5425 29.795C2.2625 27.17 0.96875 23.78 0.96875 20.2268V7.53496C0.96875 6.66684 1.51625 5.89434 2.33562 5.60746L14.6769 1.27059C15.1156 1.11684 15.5937 1.11684 16.0306 1.27059L28.3719 5.60746Z" stroke="#1CDE75" stroke-width="1.5" stroke-linecap="round" stroke-linejoin="round"/>
<path d="M10.4795 18.3463L14.027 21.8957L21.3357 14.5869" stroke="#1CDE75" stroke-width="1.5" stroke-linecap="round" stroke-linejoin="round"/>
</svg>
