<svg width="12" height="17" viewBox="0 0 12 17" fill="none" xmlns="http://www.w3.org/2000/svg">
<g clip-path="url(#clip0_205_844)">
<path d="M9.46875 8.99531C10.5156 8.00078 11.0938 6.67598 11.0938 5.26953C11.0938 3.86123 10.5176 2.53828 9.46875 1.54375C8.42188 0.549219 7.02734 0 5.54688 0C4.06641 0 2.67188 0.547363 1.625 1.54375C0.578125 2.54014 0 3.86123 0 5.26953C0 6.45332 0.408203 7.57773 1.16016 8.49619C1.30273 8.67061 1.45703 8.83574 1.62305 8.99531C1.78906 9.15303 1.96484 9.29961 2.14648 9.43506C2.91992 10.0065 3.83203 10.3702 4.80469 10.4927V12.4688H2.57812C2.49219 12.4688 2.42188 12.5355 2.42188 12.6172V13.7305C2.42188 13.8121 2.49219 13.8789 2.57812 13.8789H4.80469V16.4766C4.80469 16.5582 4.875 16.625 4.96094 16.625H6.13281C6.21875 16.625 6.28906 16.5582 6.28906 16.4766V13.8789H8.51562C8.60156 13.8789 8.67188 13.8121 8.67188 13.7305V12.6172C8.67188 12.5355 8.60156 12.4688 8.51562 12.4688H6.28906V10.4927C7.49023 10.3405 8.59766 9.82285 9.46875 8.99531ZM5.54688 9.12891C4.46094 9.12891 3.44336 8.72812 2.67383 7.99893C1.90625 7.26973 1.48438 6.30117 1.48438 5.26953C1.48438 4.23789 1.90625 3.27119 2.67383 2.54014C3.44141 1.80908 4.46094 1.41016 5.54688 1.41016C6.63281 1.41016 7.65039 1.81094 8.41992 2.54014C9.1875 3.26934 9.60938 4.23789 9.60938 5.26953C9.60938 6.30117 9.1875 7.26787 8.41992 7.99893C7.65039 8.72812 6.63281 9.12891 5.54688 9.12891Z" fill="#7044CC"/>
</g>
<defs>
<clipPath id="clip0_205_844">
<rect width="12" height="17" fill="white"/>
</clipPath>
</defs>
</svg>
