<svg width="20" height="20" viewBox="0 0 20 20" fill="none" xmlns="http://www.w3.org/2000/svg">
<g clip-path="url(#clip0_216_888)">
<path d="M8.23412 15.6043H1" stroke="#7044CC" stroke-width="1.5" stroke-linecap="round" stroke-linejoin="round"/>
<path fill-rule="evenodd" clip-rule="evenodd" d="M19.2356 15.6044C19.2356 17.195 17.9462 18.4844 16.3556 18.4844C14.765 18.4844 13.4756 17.195 13.4756 15.6044C13.4756 14.0126 14.765 12.7244 16.3556 12.7244C17.9462 12.7244 19.2356 14.0126 19.2356 15.6044Z" stroke="#7044CC" stroke-width="1.5" stroke-linecap="round" stroke-linejoin="round"/>
<path d="M12 3.87998H19.2353" stroke="#7044CC" stroke-width="1.5" stroke-linecap="round" stroke-linejoin="round"/>
<path fill-rule="evenodd" clip-rule="evenodd" d="M1 3.88C1 5.47176 2.28941 6.76 3.88 6.76C5.47059 6.76 6.76 5.47176 6.76 3.88C6.76 2.28941 5.47059 1 3.88 1C2.28941 1 1 2.28941 1 3.88Z" stroke="#7044CC" stroke-width="1.5" stroke-linecap="round" stroke-linejoin="round"/>
</g>
<defs>
<clipPath id="clip0_216_888">
<rect width="20" height="20" fill="white"/>
</clipPath>
</defs>
</svg>
