<svg width="15" height="17" viewBox="0 0 15 17" fill="none" xmlns="http://www.w3.org/2000/svg">
<path d="M13.9902 1H9.31445C9.25322 1 9.20312 1.0501 9.20312 1.11133V2.15039C9.20312 2.21162 9.25322 2.26172 9.31445 2.26172H12.2906L8.59268 5.95967C7.66494 5.24531 6.53311 4.85938 5.34375 4.85938C3.91689 4.85938 2.57354 5.41602 1.56602 6.42539C0.558496 7.43477 0 8.77627 0 10.2031C0 11.63 0.55664 12.9733 1.56602 13.9809C2.57354 14.9902 3.91689 15.5469 5.34375 15.5469C6.77061 15.5469 8.11396 14.9902 9.12148 13.9809C10.1309 12.9733 10.6875 11.63 10.6875 10.2031C10.6875 9.01377 10.3016 7.88564 9.58906 6.95791L13.2852 3.26182V6.23242C13.2852 6.29365 13.3353 6.34375 13.3965 6.34375H14.4355C14.4968 6.34375 14.5469 6.29365 14.5469 6.23242V1.55664C14.5469 1.25049 14.2964 1 13.9902 1ZM5.34375 14.1367C3.17471 14.1367 1.41016 12.3722 1.41016 10.2031C1.41016 8.03408 3.17471 6.26953 5.34375 6.26953C7.51279 6.26953 9.27734 8.03408 9.27734 10.2031C9.27734 12.3722 7.51279 14.1367 5.34375 14.1367Z" fill="#7044CC"/>
</svg>
