<svg width="76" height="76" viewBox="0 0 76 76" fill="none" xmlns="http://www.w3.org/2000/svg">
<path d="M76 38C76 58.9868 58.9868 76 38 76C17.0132 76 0 58.9868 0 38C0 17.0132 17.0132 0 38 0C58.9868 0 76 17.0132 76 38Z" fill="#7044CC"/>
<path fill-rule="evenodd" clip-rule="evenodd" d="M38 54.1873C46.939 54.1873 54.1875 46.9405 54.1875 37.9998C54.1875 29.0608 46.939 21.8123 38 21.8123C29.061 21.8123 21.8125 29.0608 21.8125 37.9998C21.8125 46.9405 29.061 54.1873 38 54.1873Z" stroke="white" stroke-width="1.5" stroke-linecap="round" stroke-linejoin="round"/>
<path d="M35.4761 44.0745L41.5766 38.0002L35.4761 31.926" stroke="white" stroke-width="1.5" stroke-linecap="round" stroke-linejoin="round"/>
</svg>
