<svg width="24" height="24" viewBox="0 0 24 24" fill="none" xmlns="http://www.w3.org/2000/svg">
<g clip-path="url(#clip0_161_583)">
<path d="M4.71436 10.932C4.71436 15.0215 8.02864 18.3358 12.1182 18.3358M12.1182 18.3358C16.2077 18.3358 19.5229 15.0215 19.5229 10.932M12.1182 18.3358L12.1185 21.1468M14.0015 6.87691H15.9044M13.0491 10.0484H15.9044M12.2445 14.5843H11.9922C9.97121 14.5843 8.33217 12.9462 8.33217 10.9243V6.37387C8.33217 4.35291 9.97121 2.71387 11.9922 2.71387H12.2445C14.2665 2.71387 15.9045 4.35291 15.9045 6.37387V10.9243C15.9045 12.9462 14.2665 14.5843 12.2445 14.5843Z" stroke="#200E32" stroke-width="1.5" stroke-linecap="round" stroke-linejoin="round"/>
</g>
<defs>
<clipPath id="clip0_161_583">
<rect width="24" height="24" fill="white"/>
</clipPath>
</defs>
</svg>
