<svg width="80" height="80" viewBox="0 0 80 80" fill="none" xmlns="http://www.w3.org/2000/svg">
<rect width="80" height="80" fill="white"/>
<rect width="80" height="80" fill="white"/>
<rect width="80" height="80" fill="#7044CC"/>
<path d="M47.9062 31.4062H32.0938C31.7135 31.4062 31.4062 31.7135 31.4062 32.0938V47.9062C31.4062 48.2865 31.7135 48.5938 32.0938 48.5938H47.9062C48.2865 48.5938 48.5938 48.2865 48.5938 47.9062V32.0938C48.5938 31.7135 48.2865 31.4062 47.9062 31.4062ZM45.9211 36.4229H44.5482C43.4719 36.4229 43.2635 36.9342 43.2635 37.6861V39.3426H45.833L45.4979 41.9357H43.2635V48.5938H40.5844V41.9379H38.3436V39.3426H40.5844V37.4305C40.5844 35.2111 41.94 34.0016 43.9209 34.0016C44.8705 34.0016 45.6848 34.0725 45.9232 34.1047V36.4229H45.9211Z" fill="white"/>
</svg>
