<svg width="80" height="80" viewBox="0 0 80 80" fill="none" xmlns="http://www.w3.org/2000/svg">
<rect width="80" height="80" fill="white"/>
<rect width="80" height="80" fill="white"/>
<rect width="80" height="80" fill="white"/>
<rect width="80" height="80" fill="#7044CC"/>
<path d="M48.6652 31.7168L30.9352 38.5538C29.7252 39.0398 29.7322 39.7148 30.7132 40.0158L35.2652 41.4358L45.7972 34.7908C46.2952 34.4878 46.7502 34.6508 46.3762 34.9828L37.8432 42.6838H37.8412L37.8432 42.6848L37.5292 47.3768C37.9892 47.3768 38.1922 47.1658 38.4502 46.9168L40.6612 44.7668L45.2602 48.1638C46.1082 48.6308 46.7172 48.3908 46.9282 47.3788L49.9472 33.1508C50.2562 31.9118 49.4742 31.3508 48.6652 31.7168V31.7168Z" fill="white"/>
</svg>
