<svg width="80" height="80" viewBox="0 0 80 80" fill="none" xmlns="http://www.w3.org/2000/svg">
<rect width="80" height="80" fill="white"/>
<rect width="80" height="80" fill="#7044CC"/>
<path d="M50.3772 34.426C50.5289 33.9223 50.3772 33.5529 49.6601 33.5529H47.2843C46.6798 33.5529 46.4036 33.8724 46.2519 34.2234C46.2519 34.2234 45.044 37.169 43.3323 39.0789C42.7798 39.6347 42.5274 39.8102 42.2262 39.8102C42.0757 39.8102 41.8568 39.6347 41.8568 39.1309V34.426C41.8568 33.8215 41.6824 33.5529 41.1787 33.5529H37.4455C37.0685 33.5529 36.841 33.8324 36.841 34.0989C36.841 34.6709 37.6968 34.803 37.7846 36.415V39.912C37.7846 40.6779 37.647 40.8177 37.3437 40.8177C36.5387 40.8177 34.5801 37.8613 33.4177 34.4769C33.1912 33.8194 32.9627 33.5539 32.356 33.5539H29.9813C29.3021 33.5539 29.1667 33.8735 29.1667 34.2245C29.1667 34.855 29.9716 37.975 32.9161 42.1014C34.8791 44.9192 37.6427 46.4467 40.1603 46.4467C41.6694 46.4467 41.8557 46.1076 41.8557 45.5226V43.3928C41.8557 42.7146 41.9998 42.5781 42.4776 42.5781C42.8286 42.5781 43.4331 42.7558 44.8425 44.1132C46.4523 45.723 46.7188 46.4456 47.6234 46.4456H49.9981C50.6762 46.4456 51.0153 46.1065 50.8203 45.437C50.6069 44.7708 49.8377 43.8012 48.8172 42.6539C48.2626 41.9996 47.4338 41.2954 47.1814 40.9434C46.8293 40.4894 46.9312 40.289 47.1814 39.886C47.1825 39.8871 50.0761 35.8116 50.3772 34.426V34.426Z" fill="white"/>
</svg>
