<svg width="134" height="20" viewBox="0 0 134 20" fill="none" xmlns="http://www.w3.org/2000/svg">
<path d="M14.95 0.2H0.325V3.525H5.675V18H9.6V3.525H14.95V0.2ZM30.3582 0.2H17.0082V18H30.5332V14.725H20.8832V10.35H29.5832V7.275H20.8832V3.4H30.3582V0.2ZM45.8191 14.65H37.1191V0.2H33.2191V18H45.8191V14.65ZM61.3885 0.2H48.0385V18H61.5635V14.725H51.9135V10.35H60.6135V7.275H51.9135V3.4H61.3885V0.2ZM80.0994 8.375H72.6244V11.275H76.5994C76.4994 13.675 74.7994 15.3 72.3494 15.3C69.2494 15.3 67.4494 13.05 67.4494 9.175C67.4494 5.375 69.2494 3.1 72.2244 3.1C74.2994 3.1 75.7244 4.175 76.0994 6.05H79.8744C79.3994 2.3 76.3244 -0.175001 72.2744 -0.175001C67.1244 -0.175001 63.5244 3.675 63.5244 9.175C63.5244 14.65 66.9494 18.425 71.8994 18.425C74.1994 18.425 75.8744 17.65 77.2494 15.975L77.6244 18H80.0994V8.375Z" fill="#BBBBBB"/>
<path d="M95.9 0.2H94.025L83.15 18H85.075L88.4 12.4H96.45L97.375 18H99.125L95.9 0.2ZM94.675 1.675C94.8 2.85 95 3.975 95.2 5.125L96.225 11.025H89.2L92.45 5.65C93.15 4.475 94.125 2.875 94.675 1.675ZM104.547 0.2L100.797 18H106.022C107.947 18 108.897 17.925 109.847 17.7C114.472 16.625 117.147 11.9 117.147 7.35C117.147 4.375 116.097 2.2 114.147 1.075C112.997 0.399999 111.822 0.2 109.122 0.2H104.547ZM105.922 1.65H109.572C113.347 1.65 115.497 2.975 115.497 7.25C115.497 12.125 112.672 16.55 107.497 16.55H102.797L105.922 1.65ZM132.936 5.375C132.961 5.15 132.961 5.075 132.961 4.95C132.961 1.225 130.111 -0.100001 126.736 -0.100001C122.886 -0.100001 120.436 1.825 120.436 4.825C120.436 8.35 123.661 9.05 126.361 9.825C128.136 10.325 130.061 10.825 130.061 13.075C130.061 15.4 128.011 16.95 124.936 16.95C121.886 16.95 119.861 15.725 119.861 12.525V12.125H118.236C118.211 12.375 118.211 12.5 118.211 12.65C118.211 16.275 120.661 18.35 124.886 18.35C128.986 18.35 131.711 16.2 131.711 12.975C131.711 9.9 129.286 9 126.786 8.3C124.911 7.775 122.036 7.2 122.036 4.725C122.036 2.625 123.836 1.3 126.711 1.3C129.786 1.3 131.336 2.575 131.336 5.075V5.375H132.936Z" fill="#BBBBBB"/>
</svg>
