<svg width="96" height="75" viewBox="0 0 96 75" fill="none" xmlns="http://www.w3.org/2000/svg">
<path fill-rule="evenodd" clip-rule="evenodd" d="M5.67003 12.8652C9.78754 5.68225 16.5474 0.599976 26.9001 0.599976C37.3517 0.599976 44.0653 5.68164 48.1092 12.8723C52.1159 19.9967 53.5001 29.1676 53.5001 37.5C53.5001 48.7266 51.0752 57.8801 46.5267 64.2557C41.951 70.6696 35.2723 74.2 27.0001 74.2C18.5903 74.2 11.8102 70.7299 7.16608 64.3378C2.55002 57.9842 0.100098 48.8265 0.100098 37.5C0.100098 29.1583 1.58723 19.9875 5.67003 12.8652ZM31.4987 15.5701C30.2111 14.7294 28.665 14.3 26.8001 14.3C24.1427 14.3 22.2075 15.2301 20.7517 16.7218C19.2677 18.2425 18.2323 20.4003 17.5251 22.9088C16.1066 27.9401 16.1001 34.023 16.1001 38.2C16.1001 46.1055 17.0507 51.7893 18.8939 55.4641C19.8074 57.2851 20.9242 58.5808 22.2256 59.4251C23.5226 60.2666 25.065 60.7 26.9001 60.7C28.6723 60.7 30.1701 60.2544 31.4381 59.3859C32.7136 58.5123 33.8174 57.1687 34.7235 55.2799C36.5498 51.4731 37.5001 45.6058 37.5001 37.5C37.5001 29.1832 36.5973 23.3228 34.787 19.5721C33.891 17.7157 32.7901 16.4133 31.4987 15.5701ZM95.1665 0.999976V73H78.0665V27.5H61.0665V15H63.8665C68.6511 15 72.5718 14.0704 75.5176 12.006C78.4392 9.95864 80.5242 6.70879 81.4852 1.80756L81.6435 0.999976H95.1665ZM82.4665 1.99998H94.1665V72H79.0665V26.5H62.0665V16H63.8665C73.6665 16 80.4665 12.2 82.4665 1.99998ZM1.1001 37.5C1.1001 21 7.0001 1.59998 26.9001 1.59998C47.0001 1.59998 52.5001 21 52.5001 37.5C52.5001 59.7 42.9001 73.2 27.0001 73.2C10.8001 73.2 1.1001 59.9 1.1001 37.5ZM38.5001 37.5C38.5001 20.8 34.9001 13.3 26.8001 13.3C15.1001 13.3 15.1001 29.9 15.1001 38.2C15.1001 54.1 18.9001 61.7 26.9001 61.7C34.7001 61.7 38.5001 53.8 38.5001 37.5Z" fill="#5F37D0"/>
</svg>
