<svg width="109" height="75" viewBox="0 0 109 75" fill="none" xmlns="http://www.w3.org/2000/svg">
<path fill-rule="evenodd" clip-rule="evenodd" d="M7.09397 64.3917L7.08688 64.3821C2.38932 57.8193 0.100098 48.8209 0.100098 37.5C0.100098 32.9693 0.539586 28.6971 1.42317 24.6864C2.30814 20.6027 3.70402 16.7207 5.61063 13.043C7.5597 9.21587 10.352 6.1785 13.976 3.94834L13.9832 3.9439C17.6943 1.70325 22.0118 0.599999 26.9001 0.599999C30.8934 0.599999 34.4796 1.35767 37.6355 2.89973C40.8175 4.42217 43.4088 6.41014 45.381 8.87531C47.3206 11.2998 48.9019 14.1591 50.1332 17.4404C51.4248 20.705 52.3115 23.9771 52.7896 27.2557C53.2639 30.5076 53.5001 33.9228 53.5001 37.5C53.5001 48.7558 51.2102 57.7201 46.5133 64.282C41.788 70.8834 35.2489 74.2 27.0001 74.2C18.5657 74.2 11.8924 70.9287 7.09397 64.3917ZM49.2001 17.8C48.0001 14.6 46.4668 11.8333 44.6001 9.5C42.7334 7.16667 40.2668 5.26667 37.2001 3.8C34.2001 2.33333 30.7668 1.6 26.9001 1.6C22.1668 1.6 18.0334 2.66667 14.5001 4.8C11.0334 6.93333 8.36676 9.83333 6.5001 13.5C4.63343 17.1 3.26676 20.9 2.4001 24.9C1.53343 28.8333 1.1001 33.0333 1.1001 37.5C1.1001 48.7 3.36676 57.4667 7.9001 63.8C12.5001 70.0667 18.8668 73.2 27.0001 73.2C34.9334 73.2 41.1668 70.0333 45.7001 63.7C50.2334 57.3667 52.5001 48.6333 52.5001 37.5C52.5001 33.9667 52.2668 30.6 51.8001 27.4C51.3334 24.2 50.4668 21 49.2001 17.8ZM16.4964 28.2854L16.4962 28.2879C16.298 30.5339 16.1664 32.2452 16.1001 33.4278V38.2C16.1001 45.9819 17.0823 51.6691 18.9438 55.3763C19.8674 57.2156 20.9914 58.5356 22.2907 59.3981C23.5838 60.2566 25.1075 60.7 26.9001 60.7C28.6496 60.7 30.1376 60.2473 31.4042 59.3665C32.6791 58.4799 33.7869 57.1192 34.6983 55.2178C36.5341 51.388 37.5001 45.5187 37.5001 37.5C37.5001 29.2014 36.5643 23.2903 34.7995 19.6348L34.7967 19.6288C33.9239 17.7898 32.8237 16.4711 31.5226 15.6085C30.2255 14.7487 28.6657 14.3 26.8001 14.3C25.0797 14.3 23.6227 14.6674 22.3962 15.3682C21.1799 16.0633 20.1721 17.1153 19.383 18.5696C18.6052 20.061 17.9598 21.5141 17.4446 22.9289C17.0151 24.2226 16.6925 25.998 16.4964 28.2854ZM16.5001 22.6C17.0334 21.1333 17.7001 19.6333 18.5001 18.1C19.3668 16.5 20.5001 15.3 21.9001 14.5C23.3001 13.7 24.9334 13.3 26.8001 13.3C30.8668 13.3 33.8334 15.2667 35.7001 19.2C37.5668 23.0667 38.5001 29.1667 38.5001 37.5C38.5001 53.6333 34.6334 61.7 26.9001 61.7C19.0334 61.7 15.1001 53.8667 15.1001 38.2V33.4C15.1668 32.2 15.3001 30.4667 15.5001 28.2C15.7001 25.8667 16.0334 24 16.5001 22.6ZM108.367 58.7V73H55.045L55.0667 71.9787C55.1349 68.7739 55.5444 65.8218 56.3041 63.1285L56.3063 63.1206L56.3087 63.1127C57.1226 60.3994 58.0476 58.0948 59.0924 56.2144L59.0991 56.2022L59.1062 56.1902C60.2359 54.2839 61.9055 52.3115 64.0826 50.2705C66.2316 48.2558 68.1273 46.6294 69.7665 45.4L69.7743 45.3942L69.7822 45.3885C71.4596 44.1808 73.8681 42.5083 77.0037 40.3734L77.0118 40.3679C77.4164 40.0982 78.4875 39.3953 80.2193 38.263C81.9531 37.1293 83.1409 36.3373 83.793 35.8808C84.4171 35.4439 85.3835 34.6729 86.708 33.5473C88.0097 32.3748 88.857 31.4198 89.3148 30.6759L89.329 30.653L89.3443 30.6308C89.894 29.8368 90.4284 28.8375 90.9414 27.6201C91.4265 26.4045 91.6665 25.1665 91.6665 23.9C91.6665 21.0512 90.8081 18.8971 89.1724 17.3198L89.1593 17.3072L89.1467 17.2941C87.5651 15.654 85.4414 14.8 82.6665 14.8C79.332 14.8 76.8999 15.9554 75.2165 18.2C73.4915 20.5 72.4621 24.0637 72.2657 29.0394L72.2278 30H56.6665V27.5C56.6665 19.3643 59.0315 12.7921 63.8519 7.90045C68.674 2.94012 75.1508 0.5 83.1665 0.5C90.4308 0.5 96.4189 2.56124 101.036 6.7574C105.663 10.8952 107.967 16.307 107.967 22.9C107.967 28.1798 106.766 32.5149 104.262 35.8055C101.838 38.9915 98.076 42.2943 93.0343 45.7232C92.3558 46.198 91.1155 47.0359 89.3212 48.2321L89.3104 48.2393L89.2993 48.2462C87.5116 49.3718 86.0952 50.2942 85.0456 51.0154C84.0569 51.7407 82.8348 52.6655 81.378 53.7913C79.9453 54.8983 78.7193 55.9968 77.6947 57.0854L77.6843 57.0964L77.6736 57.1071C77.1487 57.632 76.6682 58.163 76.2314 58.7H108.367ZM74.9633 58.7C74.7163 59.0304 74.4841 59.3637 74.2665 59.7H107.367V72H56.0665C56.0737 71.6636 56.0847 71.3303 56.0995 71C56.2229 68.2542 56.6119 65.7209 57.2665 63.4C58.0665 60.7333 58.9665 58.5 59.9665 56.7C61.0332 54.9 62.6332 53 64.7665 51C66.8998 49 68.7665 47.4 70.3665 46.2C72.0332 45 74.4332 43.3333 77.5665 41.2C77.9665 40.9333 79.0332 40.2333 80.7665 39.1C82.4998 37.9667 83.6998 37.1667 84.3665 36.7C85.0332 36.2333 86.0332 35.4333 87.3665 34.3C88.6998 33.1 89.6332 32.0667 90.1665 31.2C90.7665 30.3333 91.3332 29.2667 91.8665 28C92.3998 26.6667 92.6665 25.3 92.6665 23.9C92.6665 20.8333 91.7332 18.4 89.8665 16.6C88.0665 14.7333 85.6665 13.8 82.6665 13.8C75.4665 13.8 71.6665 18.8667 71.2665 29H57.6665V27.5C57.6665 19.5667 59.9665 13.2667 64.5665 8.6C69.1665 3.86667 75.3665 1.5 83.1665 1.5C90.2332 1.5 95.9665 3.5 100.367 7.5C104.767 11.4333 106.967 16.5667 106.967 22.9C106.967 28.0333 105.8 32.1333 103.467 35.2C101.133 38.2667 97.4665 41.5 92.4665 44.9C91.7998 45.3667 90.5665 46.2 88.7665 47.4C86.9665 48.5333 85.5332 49.4667 84.4665 50.2C83.4665 50.9333 82.2332 51.8667 80.7665 53C79.2998 54.1333 78.0332 55.2667 76.9665 56.4C76.2163 57.1502 75.5486 57.9169 74.9633 58.7Z" fill="#5F37D0"/>
</svg>
