<svg width="109" height="75" viewBox="0 0 109 75" fill="none" xmlns="http://www.w3.org/2000/svg">
<path fill-rule="evenodd" clip-rule="evenodd" d="M7.09397 64.3917L7.08688 64.3821C2.38932 57.8193 0.100098 48.8209 0.100098 37.5C0.100098 32.9693 0.539586 28.6971 1.42317 24.6864C2.30814 20.6027 3.70402 16.7207 5.61063 13.043C7.5597 9.21587 10.352 6.1785 13.976 3.94834L13.9832 3.9439C17.6943 1.70325 22.0118 0.599999 26.9001 0.599999C30.8934 0.599999 34.4796 1.35767 37.6355 2.89973C40.8175 4.42217 43.4088 6.41014 45.381 8.87531C47.3206 11.2998 48.9019 14.1591 50.1332 17.4404C51.4248 20.705 52.3115 23.9771 52.7896 27.2557C53.2639 30.5076 53.5001 33.9228 53.5001 37.5C53.5001 48.7558 51.2102 57.7201 46.5133 64.282C41.788 70.8834 35.2489 74.2 27.0001 74.2C18.5657 74.2 11.8924 70.9287 7.09397 64.3917ZM49.2001 17.8C48.0001 14.6 46.4668 11.8333 44.6001 9.5C42.7334 7.16667 40.2668 5.26667 37.2001 3.8C34.2001 2.33333 30.7668 1.6 26.9001 1.6C22.1668 1.6 18.0334 2.66667 14.5001 4.8C11.0334 6.93333 8.36676 9.83333 6.5001 13.5C4.63343 17.1 3.26676 20.9 2.4001 24.9C1.53343 28.8333 1.1001 33.0333 1.1001 37.5C1.1001 48.7 3.36676 57.4667 7.9001 63.8C12.5001 70.0667 18.8668 73.2 27.0001 73.2C34.9334 73.2 41.1668 70.0333 45.7001 63.7C50.2334 57.3667 52.5001 48.6333 52.5001 37.5C52.5001 33.9667 52.2668 30.6 51.8001 27.4C51.3334 24.2 50.4668 21 49.2001 17.8ZM16.4964 28.2854L16.4962 28.2879C16.298 30.5339 16.1664 32.2452 16.1001 33.4278V38.2C16.1001 45.9819 17.0823 51.6691 18.9438 55.3763C19.8674 57.2156 20.9914 58.5356 22.2907 59.3981C23.5838 60.2566 25.1075 60.7 26.9001 60.7C28.6496 60.7 30.1376 60.2473 31.4042 59.3665C32.6791 58.4799 33.7869 57.1192 34.6983 55.2178C36.5341 51.388 37.5001 45.5187 37.5001 37.5C37.5001 29.2014 36.5643 23.2903 34.7995 19.6348L34.7967 19.6288C33.9239 17.7898 32.8237 16.4711 31.5226 15.6085C30.2255 14.7487 28.6657 14.3 26.8001 14.3C25.0797 14.3 23.6227 14.6674 22.3962 15.3682C21.1799 16.0633 20.1721 17.1153 19.383 18.5696C18.6052 20.061 17.9598 21.5141 17.4446 22.9289C17.0151 24.2226 16.6925 25.998 16.4964 28.2854ZM16.5001 22.6C17.0334 21.1333 17.7001 19.6333 18.5001 18.1C19.3668 16.5 20.5001 15.3 21.9001 14.5C23.3001 13.7 24.9334 13.3 26.8001 13.3C30.8668 13.3 33.8334 15.2667 35.7001 19.2C37.5668 23.0667 38.5001 29.1667 38.5001 37.5C38.5001 53.6333 34.6334 61.7 26.9001 61.7C19.0334 61.7 15.1001 53.8667 15.1001 38.2V33.4C15.1668 32.2 15.3001 30.4667 15.5001 28.2C15.7001 25.8667 16.0334 24 16.5001 22.6ZM56.7291 25.9L56.7672 24.8633C57.041 17.4014 59.3781 11.4356 63.8679 7.08449C68.3617 2.66258 74.4349 0.5 81.9665 0.5C89.0735 0.5 94.9183 2.34759 99.4049 6.13028C103.97 9.85581 106.267 14.7403 106.267 20.7C106.267 24.2864 105.314 27.4596 103.383 30.1777C102.085 32.0241 100.453 33.4395 98.5013 34.4201C101.278 35.5433 103.572 37.2631 105.357 39.587C107.714 42.5898 108.867 46.2825 108.867 50.6C108.867 57.5448 106.316 63.289 101.226 67.7519C96.2082 72.1423 89.7241 74.3 81.8665 74.3C73.7416 74.3 67.1743 72.0417 62.2805 67.4276C57.3802 62.8073 54.9665 56.5928 54.9665 48.9V46.9H70.6512L70.6664 47.8846C70.7308 52.0711 71.7258 55.1421 73.5158 57.2375C75.3488 59.2411 77.9823 60.3 81.5665 60.3C84.8348 60.3 87.3762 59.3949 89.2888 57.6646C91.2008 55.8691 92.1665 53.5759 92.1665 50.7C92.1665 47.2655 91.0582 44.9963 89.0118 43.632L88.9984 43.6231L88.9853 43.6137C86.8663 42.1002 84.0541 41.3 80.4665 41.3C79.0799 41.3 77.9389 41.3331 77.0378 41.3975L75.9665 41.474V29.305L77.057 29.4041C77.7556 29.4676 78.5249 29.5 79.3665 29.5C83.3429 29.5 86.145 28.7776 87.9315 27.489C89.6575 26.244 90.5665 24.3744 90.5665 21.7C90.5665 19.2847 89.7643 17.436 88.2021 16.0474L88.1951 16.0412L88.1882 16.0348C86.6818 14.6443 84.6124 13.9 81.8665 13.9C78.7592 13.9 76.4542 14.8524 74.8146 16.6636C73.2259 18.4919 72.3305 21.1951 72.2664 24.9172L72.2494 25.9H56.7291ZM74.0665 16C75.9332 13.9333 78.5332 12.9 81.8665 12.9C84.7998 12.9 87.1332 13.7 88.8665 15.3C90.6665 16.9 91.5665 19.0333 91.5665 21.7C91.5665 27.5667 87.4998 30.5 79.3665 30.5C78.8787 30.5 78.4121 30.4894 77.9665 30.4683C77.6204 30.4519 77.2871 30.4291 76.9665 30.4V40.4C77.2744 40.378 77.6078 40.3596 77.9665 40.3449C78.6951 40.315 79.5284 40.3 80.4665 40.3C84.1998 40.3 87.2332 41.1333 89.5665 42.8C91.9665 44.4 93.1665 47.0333 93.1665 50.7C93.1665 53.8333 92.0998 56.4 89.9665 58.4C87.8332 60.3333 85.0332 61.3 81.5665 61.3C77.7665 61.3 74.8332 60.1667 72.7665 57.9C70.7665 55.5667 69.7332 52.2333 69.6665 47.9H55.9665V48.9C55.9665 56.3667 58.2998 62.3 62.9665 66.7C67.6332 71.1 73.9332 73.3 81.8665 73.3C89.5332 73.3 95.7665 71.2 100.567 67C105.433 62.7333 107.867 57.2667 107.867 50.6C107.867 46.4667 106.767 43 104.567 40.2C102.704 37.7727 100.243 36.0384 97.1855 34.9972C96.6321 34.8088 96.0591 34.643 95.4665 34.5C96.0538 34.3434 96.6168 34.1549 97.1555 33.9344C99.3688 33.0286 101.172 31.5838 102.567 29.6C104.367 27.0667 105.267 24.1 105.267 20.7C105.267 15.0333 103.1 10.4333 98.7665 6.9C94.4998 3.3 88.8998 1.5 81.9665 1.5C74.6332 1.5 68.8332 3.6 64.5665 7.8C60.4975 11.7418 58.2475 17.1085 57.8165 23.9C57.7955 24.23 57.7789 24.5633 57.7665 24.9H71.2665C71.3332 21.0333 72.2665 18.0667 74.0665 16Z" fill="#5F37D0"/>
</svg>
