<svg width="62" height="58" viewBox="0 0 62 58" fill="none" xmlns="http://www.w3.org/2000/svg">
<path d="M57.8985 58H4.10154C1.86 58 0 56.1595 0 53.8942V21.7559C0 19.4907 1.86 17.6501 4.10154 17.6501H20.8892V19.5379H4.10154C2.90923 19.5379 1.90769 20.5289 1.90769 21.7559V53.9414C1.90769 55.1685 2.90923 56.1595 4.10154 56.1595H57.8985C59.0908 56.1595 60.0923 55.1685 60.0923 53.9414V21.7559C60.0923 20.5289 59.0908 19.5379 57.8985 19.5379V17.6501C60.14 17.6501 62 19.4907 62 21.7559V53.9414C62 56.1595 60.14 58 57.8985 58Z" fill="#7044CC"/>
<path d="M15.7861 39.0757H5.10303V40.9634H15.7861V39.0757Z" fill="#7044CC"/>
<path d="M27.8523 46.2962H5.10303V48.1839H27.8523V46.2962Z" fill="#7044CC"/>
<path d="M29.14 39.0757H18.4569V40.9634H29.14V39.0757Z" fill="#7044CC"/>
<path d="M42.4939 39.0757H31.8108V40.9634H42.4939V39.0757Z" fill="#7044CC"/>
<path d="M55.8478 39.0757H45.1647V40.9634H55.8478V39.0757Z" fill="#7044CC"/>
<path d="M16.6446 34.6396H4.57849V25.6729H16.6923V34.6396H16.6446ZM6.48618 32.7518H14.7846V27.5606H6.48618V32.7518Z" fill="#7044CC"/>
<path d="M39.68 35.253L39.3939 35.1587C32.097 33.035 23.7031 29.1652 23.7031 18.0277V4.48332L24.8 4.6249C26.7077 4.90805 28.8062 4.86086 30.857 4.48332C34.1477 3.86981 37.1047 2.45403 38.9647 0.6607L39.68 0L40.3477 0.6607C42.2077 2.50122 45.1647 3.86981 48.4554 4.48332C50.5539 4.86086 52.6524 4.90805 54.5124 4.6249L55.6093 4.43613V17.9805C55.6093 29.118 47.2154 32.9878 39.9185 35.1587L39.68 35.253ZM25.6108 6.65419V18.0277C25.6108 25.7673 29.8077 30.345 39.68 33.3181C49.5524 30.345 53.7493 25.7673 53.7493 18.0277V6.65419C51.937 6.84296 50.0293 6.70138 48.1216 6.37103C44.8308 5.75753 41.7785 4.38893 39.68 2.59561C37.5816 4.38893 34.5293 5.71033 31.2385 6.32384C29.3308 6.70138 27.4231 6.79577 25.6108 6.65419Z" fill="#7044CC"/>
<path d="M39.68 30.5338L39.3938 30.4394C31.4292 27.8438 28.1862 24.2571 28.1862 18.0277V9.34419L29.0446 9.29699C29.9031 9.2498 30.8092 9.10822 31.6677 8.96664C34.3862 8.44752 37.0092 7.50367 39.1554 6.18227L39.6323 5.89911L40.1092 6.18227C42.2554 7.50367 44.8308 8.44752 47.5969 8.96664C48.4554 9.10822 49.3615 9.2498 50.22 9.29699L51.0785 9.34419V17.9805C51.0785 24.2571 47.8354 27.8438 39.9185 30.3922L39.68 30.5338ZM30.0938 11.0903V17.9805C30.0938 23.3133 32.6692 26.192 39.68 28.5045C46.6431 26.192 49.2662 23.3133 49.2662 17.9805V11.0903C48.5985 10.9959 47.9785 10.9015 47.3108 10.8072C44.5446 10.288 41.9215 9.34419 39.68 8.06998C37.4385 9.34419 34.8154 10.288 32.0492 10.8072C31.4292 10.9487 30.7615 11.0431 30.0938 11.0903Z" fill="#7044CC"/>
<path d="M39.2508 20.5761L36.1508 18.5468L37.2 16.9422L38.8215 18.0277L41.9215 14.1578L43.4477 15.2905L39.2508 20.5761Z" fill="#7044CC"/>
</svg>
