<svg width="46" height="62" viewBox="0 0 46 62" fill="none" xmlns="http://www.w3.org/2000/svg">
<path d="M38.9451 30.0462H38.7068V28.1385H38.9451C40.0892 28.1385 41.0425 27.2323 41.0425 26.0877V20.5554C41.0425 19.4108 40.0892 18.5046 38.9451 18.5046H38.7068C38.5638 18.5046 38.4684 18.5523 38.3254 18.6L37.6581 16.7877C37.9918 16.6446 38.3731 16.5969 38.7068 16.5969H38.9451C41.1379 16.5969 42.9493 18.3615 42.9493 20.5554V26.04C42.9493 28.2338 41.1379 30.0462 38.9451 30.0462Z" fill="#7044CC"/>
<path d="M46 62H44.0933V54.4647C44.0933 51.6508 41.4238 49.4093 38.1347 49.4093H7.86528C4.57617 49.4093 1.90674 51.6985 1.90674 54.4647V62H0V54.4647C0 50.6016 3.52746 47.5016 7.86528 47.5016H38.1347C42.4725 47.5016 46 50.6493 46 54.4647V62Z" fill="#7044CC"/>
<path d="M22.9761 45.3077C13.9668 45.3077 6.62585 38.0585 6.62585 29.14V16.9785H8.53259V29.14C8.53259 37.0092 15.0155 43.4 22.9761 43.4C30.9844 43.4 37.4673 37.0092 37.4673 29.14V16.4539H39.374V29.14C39.374 38.0585 32.0331 45.3077 22.9761 45.3077Z" fill="#7044CC"/>
<path d="M8.38958 30.3323H2.6217V9.58615C2.6217 6.05692 5.52948 3.19538 9.10461 3.19538H11.059C12.5844 1.19231 14.9201 0 17.4942 0H44.3792V6.72462C44.3792 11.1123 40.7564 14.6892 36.2756 14.6892H11.345C9.72429 14.6892 8.38958 15.9769 8.38958 17.5508V30.3323ZM4.52844 28.4246H6.53051V17.5508C6.53051 14.9277 8.72326 12.7815 11.3927 12.7815H36.3709C39.7554 12.7815 42.5678 10.0631 42.5678 6.72462V1.90769H17.4942C15.3968 1.90769 13.4901 2.95692 12.3461 4.67385L12.06 5.10308H9.05694C6.53051 5.10308 4.48077 7.10615 4.48077 9.58615V28.4246H4.52844Z" fill="#7044CC"/>
<path d="M8.53258 30.0938L7.48388 29.9984C5.72015 29.8077 2.6217 28.3292 2.6217 26.0877V20.5553C2.6217 18.2661 5.76782 16.8353 7.48388 16.6446L8.53258 16.5492V30.0938ZM6.62585 18.7907C5.52948 19.1723 4.52844 19.9353 4.52844 20.5553V26.04C4.52844 26.66 5.57714 27.423 6.62585 27.8046V18.7907Z" fill="#7044CC"/>
<path d="M28.0291 49.2661H26.1223V56.2769H28.0291V49.2661Z" fill="#7044CC"/>
<path d="M22.8331 49.2661H20.9264V56.2769H22.8331V49.2661Z" fill="#7044CC"/>
</svg>
