<svg width="66" height="21" viewBox="0 0 66 21" fill="none" xmlns="http://www.w3.org/2000/svg">
<path d="M47.7518 1.23723C46.241 0.679659 44.644 0.399865 43.036 0.411027C37.836 0.411027 34.1635 3.06411 34.1375 6.87257C34.105 9.67048 36.7473 11.2472 38.746 12.182C40.7968 13.1432 41.4825 13.7489 41.476 14.608C41.463 15.9148 39.838 16.5073 38.3268 16.5073C36.25 16.5073 35.1158 16.2143 33.3705 15.4803L32.7238 15.1742L31.986 19.5587C33.2503 20.0919 35.5285 20.5494 37.8815 20.5889C43.4098 20.5889 47.0238 17.9523 47.066 13.9003C47.1115 11.6652 45.6815 9.97661 42.672 8.58094C40.8423 7.67573 39.708 7.07007 39.708 6.15169C39.708 5.33865 40.6798 4.46965 42.711 4.46965C44.0629 4.43652 45.4064 4.69341 46.6533 5.22344L47.1408 5.44398L47.8785 1.20761L47.7518 1.23723ZM61.2458 0.766526H57.1833C55.919 0.766526 54.9668 1.11873 54.4143 2.38932L46.6013 20.3157H52.1295L53.2345 17.3763L59.9815 17.3829C60.1408 18.0708 60.6283 20.3157 60.6283 20.3157H65.5033L61.2458 0.766526ZM26.6593 0.601942H31.9275L28.632 20.161H23.3703L26.6593 0.595359V0.601942ZM13.2855 11.3821L13.8315 14.0978L18.9795 0.766526H24.5598L16.269 20.2894H10.7018L6.15178 3.75865C6.07809 3.48607 5.90502 3.25197 5.66753 3.10361C4.02758 2.2456 2.28995 1.59447 0.49353 1.16482L0.56503 0.753357H9.04428C10.1948 0.799441 11.121 1.16482 11.4298 2.40907L13.2823 11.392V11.3821H13.2855ZM54.7458 13.3769L56.8453 7.90615C56.8193 7.9654 57.2775 6.77711 57.544 6.04307L57.9048 7.73169L59.1235 13.3736H54.7425V13.3769H54.7458Z" fill="#7044CC"/>
</svg>
