<svg width="30" height="30" viewBox="0 0 30 30" fill="none" xmlns="http://www.w3.org/2000/svg">
<path fill-rule="evenodd" clip-rule="evenodd" d="M15 30C23.2843 30 30 23.2843 30 15C30 6.71573 23.2843 0 15 0C6.71573 0 0 6.71573 0 15C0 23.2843 6.71573 30 15 30Z" fill="#EBEDF2"/>
<path d="M10.292 19.0137C9.90919 19.3887 9.89356 20.0762 10.2998 20.4746C10.6982 20.873 11.3857 20.8574 11.7607 20.4824L15.3857 16.8574L19.0107 20.4746C19.4014 20.8652 20.0732 20.873 20.4717 20.4668C20.8701 20.0684 20.8701 19.3965 20.4795 19.0059L16.8545 15.3887L20.4795 11.7637C20.8701 11.373 20.8701 10.7012 20.4717 10.3027C20.0732 9.89648 19.4014 9.9043 19.0107 10.2949L15.3857 13.9121L11.7607 10.2871C11.3857 9.91211 10.6982 9.89648 10.2998 10.2949C9.89356 10.6934 9.90919 11.3809 10.292 11.7637L13.917 15.3887L10.292 19.0137Z" fill="#C6C8CC"/>
</svg>
