<svg width="134" height="20" viewBox="0 0 134 20" fill="none" xmlns="http://www.w3.org/2000/svg">
<path d="M14.95 1.375H0.324951V4.7H5.67495V19.175H9.59995V4.7H14.95V1.375Z" fill="black"/>
<path d="M30.3582 1.375H17.0082V19.175H30.5332V15.9H20.8832V11.525H29.5832V8.45H20.8832V4.575H30.3582V1.375Z" fill="black"/>
<path d="M45.8191 15.825H37.1191V1.375H33.2191V19.175H45.8191V15.825Z" fill="black"/>
<path d="M61.3884 1.375H48.0384V19.175H61.5634V15.9H51.9134V11.525H60.6134V8.45H51.9134V4.575H61.3884V1.375Z" fill="black"/>
<path d="M80.0994 9.55H72.6244V12.45H76.5994C76.4994 14.85 74.7994 16.475 72.3494 16.475C69.2494 16.475 67.4494 14.225 67.4494 10.35C67.4494 6.55 69.2494 4.275 72.2244 4.275C74.2994 4.275 75.7244 5.35 76.0994 7.225H79.8744C79.3994 3.475 76.3244 1 72.2744 1C67.1244 1 63.5244 4.85 63.5244 10.35C63.5244 15.825 66.9494 19.6 71.8994 19.6C74.1994 19.6 75.8744 18.825 77.2494 17.15L77.6244 19.175H80.0994V9.55Z" fill="black"/>
<path d="M95.9 1.3H94.025L83.15 19.1H85.075L88.4 13.5H96.45L97.375 19.1H99.125L95.9 1.3ZM94.675 2.775C94.8 3.95 95 5.075 95.2 6.225L96.225 12.125H89.2L92.45 6.75C93.15 5.575 94.125 3.975 94.675 2.775Z" fill="#7044CC"/>
<path d="M104.547 1.3L100.797 19.1H106.022C107.947 19.1 108.897 19.025 109.847 18.8C114.472 17.725 117.147 13 117.147 8.45C117.147 5.475 116.097 3.3 114.147 2.175C112.997 1.5 111.822 1.3 109.122 1.3H104.547ZM105.922 2.75H109.572C113.347 2.75 115.497 4.075 115.497 8.35C115.497 13.225 112.672 17.65 107.497 17.65H102.797L105.922 2.75Z" fill="#7044CC"/>
<path d="M132.936 6.475C132.961 6.25 132.961 6.175 132.961 6.05C132.961 2.325 130.111 1 126.736 1C122.886 1 120.436 2.925 120.436 5.925C120.436 9.45 123.661 10.15 126.361 10.925C128.136 11.425 130.061 11.925 130.061 14.175C130.061 16.5 128.011 18.05 124.936 18.05C121.886 18.05 119.861 16.825 119.861 13.625V13.225H118.236C118.211 13.475 118.211 13.6 118.211 13.75C118.211 17.375 120.661 19.45 124.886 19.45C128.986 19.45 131.711 17.3 131.711 14.075C131.711 11 129.286 10.1 126.786 9.4C124.911 8.875 122.036 8.3 122.036 5.825C122.036 3.725 123.836 2.4 126.711 2.4C129.786 2.4 131.336 3.675 131.336 6.175V6.475H132.936Z" fill="#7044CC"/>
</svg>
